<svg xmlns="http://www.w3.org/2000/svg" viewBox="0 0 103.48 93.45"><defs><style>.cls-1{fill:#a72289;opacity:0.64;}.cls-2{fill:#ece70c;}.cls-2,.cls-3{opacity:0.5;}.cls-3{fill:#2e419a;}.cls-4{fill:#231f20;opacity:0.9;}.cls-5{fill:#fff;}</style></defs><g id="Layer_2" data-name="Layer 2"><g id="Layer_1-2" data-name="Layer 1"><path class="cls-1" d="M36,7.1c-30.76,16.61-41.64,64-25.48,80,11.59,11.4,35.89,5.49,49.6-1.63C88.83,70.5,108.26,31,94.79,12,84.3-2.81,55.18-3.27,36,7.1Z"/><path class="cls-2" d="M43.92,5c-22.08,2.57-39,20.4-42.82,39-.76,3.68-3.31,16,3.52,26.83,8.12,12.82,24.16,15,35.23,16.53,10.86,1.49,22.07,3,32.79-3,17.37-9.72,29-36.66,17.62-58C80.6,8.29,59.14,3.25,43.92,5Z"/><path class="cls-3" d="M12.88,10.77C1.57,20,2.5,40.18,6.65,52.51c5.39,16,18,24,23.31,27.37,5.94,3.78,25.56,16.23,43.09,8.4,11.81-5.27,16.28-16.9,23-34.42,6-15.67,10.17-26.4,5.15-34.14C97.39,13.79,91,13.93,57.87,10.77,23.31,7.48,18.51,6.2,12.88,10.77Z"/><path class="cls-4" d="M4.62,59.81C4.3,58.44,1.34,44.88,9,32.44,13.17,25.55,18.8,22,27.11,16.72c6.7-4.24,10.76-6.82,16.81-8.13,12.17-2.65,22.47,2,29.54,5.15C84,18.48,93,22.5,96.76,31.89c5.41,13.46-3.91,27.73-7,32.52A52,52,0,0,1,68.58,82.57c-6.36,3.15-22.42,11.11-39.84,4.07C26.32,85.66,9,78.3,4.62,59.81Z"/><path class="cls-5" d="M34.81,61.81c-2,0-6.34-14-.27-22.5.72-1,1.7-2.38,2.44-2.17C39.84,38,37.34,61.73,34.81,61.81Z"/><path class="cls-5" d="M45.93,39.32c-.44,1.16-4.17.73-8.59.19-6.58-.8-9.87-1.2-9.93-2.11-.1-1.56,9.34-5.35,15.5-1.61C44.38,36.68,46.3,38.39,45.93,39.32Z"/><path class="cls-5" d="M44.09,59.29c-.44-1.15-4.17-.72-8.59-.18-6.58.8-9.87,1.2-9.93,2.11-.11,1.56,9.34,5.35,15.49,1.61C42.53,61.94,44.45,60.23,44.09,59.29Z"/><path class="cls-5" d="M57.77,39.11C61,50,60.5,59.28,55.88,62.42c-.56.37-1.89,1.28-3,.81-3.32-1.43-1-14.14,1.62-25.2"/><path class="cls-5" d="M53.94,38.8c-.09,2,13.18,6.63,18.43,1.36.44-.44,1.72-1.73,1.35-2.71C72.52,34.18,54.05,36.49,53.94,38.8Z"/><path class="cls-5" d="M53.94,49.41c.23-1.69,12.09-2.62,13.17.21.33.84-.37,1.86-.85,2.34C63.15,55.09,53.74,51,53.94,49.41Z"/></g></g></svg>